<svg id="svg" xmlns="http://www.w3.org/2000/svg" xmlns:xlink="http://www.w3.org/1999/xlink" width="120" height="65" viewBox="0, 0, 400,100" version="1.1"><g id="svgg"><path id="path0" d="M320.000 12.615 C 312.891 13.804,310.045 22.579,315.122 27.656 C 320.053 32.587,328.319 30.331,330.079 23.575 C 331.652 17.535,326.177 11.582,320.000 12.615 M364.417 37.679 C 359.427 38.366,354.000 41.284,352.153 44.272 C 351.561 45.229,351.500 44.968,351.500 41.500 L 351.500 38.167 344.833 38.167 L 338.167 38.167 338.167 61.917 L 338.167 85.667 345.250 85.667 L 352.333 85.667 352.333 74.029 C 352.333 66.803,352.403 61.703,352.516 60.575 C 353.207 53.706,356.670 50.131,362.667 50.096 C 366.798 50.071,369.266 52.005,370.628 56.333 C 370.815 56.929,371.028 57.604,371.101 57.833 C 371.174 58.063,371.275 64.400,371.325 71.917 L 371.417 85.583 378.549 85.627 L 385.682 85.670 385.624 69.627 C 385.558 51.178,385.527 50.788,383.752 46.387 C 381.134 39.894,373.453 36.434,364.417 37.679 M314.333 61.918 L 314.333 85.670 321.458 85.627 L 328.583 85.583 328.626 61.875 L 328.668 38.167 321.501 38.167 L 314.333 38.167 314.333 61.918 " stroke="none" fill="#fbfbfb" fill-rule="evenodd"></path><path id="path1" d="M305.167 0.158 C 303.329 0.729,301.366 2.436,300.528 4.191 L 300.000 5.298 300.002 50.024 C 300.004 86.901,300.043 94.897,300.228 95.590 C 300.516 96.673,301.150 97.666,302.181 98.649 C 303.750 100.145,298.814 100.008,349.417 99.960 L 394.250 99.917 395.288 99.366 C 397.243 98.329,398.868 96.856,399.535 95.516 L 399.917 94.750 399.958 49.933 C 399.981 25.284,399.937 5.034,399.862 4.933 C 399.786 4.833,399.597 4.406,399.442 3.987 C 399.265 3.505,398.808 2.877,398.205 2.285 C 396.823 0.927,396.805 0.912,396.079 0.595 C 395.715 0.436,395.287 0.237,395.129 0.154 C 394.776 -0.032,305.765 -0.028,305.167 0.158 M323.094 12.682 C 328.015 13.587,331.332 18.761,330.079 23.575 C 328.319 30.331,320.053 32.587,315.122 27.656 C 308.986 21.521,314.531 11.107,323.094 12.682 M57.417 12.971 C 52.951 14.318,50.265 18.725,51.181 23.200 C 52.875 31.475,64.576 32.612,67.747 24.809 C 70.483 18.076,64.234 10.915,57.417 12.971 M0.000 50.000 L 0.000 85.833 21.500 85.833 L 43.000 85.833 43.000 78.583 L 43.000 71.333 28.750 71.333 L 14.500 71.333 14.500 42.750 L 14.500 14.167 7.250 14.167 L 0.000 14.167 0.000 50.000 M133.167 50.000 L 133.167 85.833 140.416 85.833 L 147.664 85.833 147.707 74.138 L 147.750 62.443 148.750 63.744 C 149.300 64.459,149.825 65.162,149.917 65.305 C 150.360 65.998,150.976 66.831,151.560 67.527 C 151.914 67.948,152.364 68.554,152.560 68.873 C 152.872 69.381,153.967 70.873,156.751 74.583 C 157.733 75.892,158.883 77.441,159.917 78.848 C 163.269 83.410,164.189 84.644,164.568 85.083 C 164.805 85.358,165.000 85.640,165.000 85.708 C 165.000 85.777,168.900 85.833,173.667 85.833 C 178.433 85.833,182.333 85.787,182.333 85.731 C 182.333 85.675,182.048 85.282,181.698 84.856 C 181.011 84.019,178.111 80.275,177.167 79.005 C 176.846 78.574,176.227 77.807,175.792 77.301 C 175.356 76.795,175.000 76.312,175.000 76.228 C 175.000 76.143,174.774 75.826,174.497 75.523 C 174.029 75.012,173.350 74.148,170.758 70.769 C 170.204 70.046,169.309 68.921,168.770 68.269 C 168.232 67.617,167.602 66.783,167.372 66.417 C 167.141 66.050,166.678 65.449,166.343 65.081 C 166.008 64.714,165.417 63.964,165.031 63.415 C 164.645 62.866,163.847 61.821,163.259 61.093 L 162.189 59.769 162.530 59.291 C 162.717 59.028,163.368 58.265,163.977 57.595 C 164.585 56.925,165.683 55.687,166.417 54.844 C 167.150 54.001,168.189 52.847,168.727 52.281 C 169.264 51.714,169.924 50.931,170.193 50.542 C 170.462 50.152,170.745 49.833,170.821 49.833 C 170.897 49.833,171.309 49.402,171.738 48.875 C 172.166 48.348,172.831 47.577,173.216 47.162 C 173.602 46.747,174.892 45.285,176.083 43.915 C 177.275 42.544,178.628 41.009,179.090 40.503 C 180.531 38.925,181.000 38.330,181.000 38.078 C 181.000 37.866,179.868 37.833,172.612 37.833 L 164.224 37.833 161.154 41.352 C 159.465 43.287,157.825 45.180,157.510 45.560 C 157.194 45.939,156.519 46.714,156.010 47.282 C 155.500 47.850,154.521 48.957,153.833 49.743 C 153.146 50.528,152.058 51.763,151.417 52.487 C 150.775 53.210,149.688 54.440,149.000 55.220 L 147.750 56.638 147.708 35.402 L 147.665 14.167 140.416 14.167 L 133.167 14.167 133.167 50.000 M271.293 28.759 L 271.250 43.351 270.417 42.545 C 264.047 36.387,251.941 35.578,243.750 40.762 C 243.292 41.052,242.692 41.490,242.417 41.735 C 242.142 41.979,241.692 42.323,241.417 42.498 C 240.876 42.842,238.443 45.434,237.894 46.250 C 237.709 46.525,237.331 47.087,237.054 47.500 C 229.995 57.999,232.596 75.398,242.249 82.252 C 250.745 88.285,264.643 87.782,271.375 81.198 L 272.333 80.260 272.333 83.047 L 272.333 85.833 279.083 85.833 L 285.833 85.833 285.833 50.000 L 285.833 14.167 278.584 14.167 L 271.335 14.167 271.293 28.759 M100.851 37.751 C 96.533 38.716,91.672 41.548,90.223 43.942 L 89.835 44.583 89.834 41.206 L 89.833 37.830 82.958 37.873 L 76.083 37.917 76.041 61.875 L 75.999 85.833 83.333 85.833 L 90.667 85.833 90.669 73.292 C 90.671 59.172,90.672 59.166,91.931 56.221 C 95.081 48.852,104.915 47.855,107.965 54.594 C 109.295 57.533,109.237 56.765,109.294 72.125 L 109.346 85.833 116.682 85.833 L 124.019 85.833 123.957 70.375 C 123.889 53.454,123.912 53.879,122.849 49.650 C 121.291 43.449,117.891 39.843,111.917 38.056 C 110.057 37.499,102.862 37.301,100.851 37.751 M199.833 37.762 C 196.372 38.389,191.481 40.264,190.083 41.499 C 189.900 41.661,189.335 42.084,188.827 42.438 C 187.889 43.094,185.000 46.036,185.000 46.335 C 185.000 46.425,184.744 46.856,184.432 47.291 C 180.525 52.739,179.760 61.713,182.401 71.118 C 182.715 72.237,183.821 74.596,184.483 75.558 C 184.766 75.971,185.069 76.483,185.154 76.696 C 185.956 78.697,190.669 82.624,194.206 84.239 C 201.366 87.508,213.824 87.031,220.729 83.224 C 221.450 82.826,222.073 82.500,222.113 82.500 C 222.644 82.500,227.167 78.504,227.167 78.034 C 227.167 77.921,226.953 77.698,226.691 77.539 C 226.430 77.380,225.661 76.783,224.983 76.211 C 224.305 75.640,223.437 74.928,223.054 74.628 C 221.150 73.137,220.370 72.504,219.356 71.628 C 218.025 70.478,217.982 70.473,217.347 71.397 C 216.878 72.079,216.446 72.453,214.308 74.030 C 211.186 76.333,205.551 77.264,202.000 76.064 C 198.068 74.736,194.732 70.588,194.676 66.958 L 194.667 66.333 211.570 66.333 L 228.473 66.333 228.593 65.215 C 228.876 62.570,228.530 57.897,227.811 54.667 C 225.899 46.076,220.897 40.496,213.083 38.237 C 210.407 37.464,202.957 37.197,199.833 37.762 M372.839 37.981 C 379.364 39.297,383.028 42.745,384.648 49.094 C 385.583 52.759,385.562 52.318,385.624 69.627 L 385.682 85.670 378.549 85.627 L 371.417 85.583 371.325 71.917 C 371.275 64.400,371.174 58.063,371.101 57.833 C 371.028 57.604,370.815 56.929,370.628 56.333 C 369.266 52.005,366.798 50.071,362.667 50.096 C 356.670 50.131,353.207 53.706,352.516 60.575 C 352.403 61.703,352.333 66.803,352.333 74.029 L 352.333 85.667 345.250 85.667 L 338.167 85.667 338.167 61.917 L 338.167 38.167 344.833 38.167 L 351.500 38.167 351.500 41.500 C 351.500 44.968,351.561 45.229,352.153 44.272 C 355.245 39.269,364.807 36.360,372.839 37.981 M52.333 61.833 L 52.333 85.833 59.583 85.833 L 66.833 85.833 66.833 61.833 L 66.833 37.833 59.583 37.833 L 52.333 37.833 52.333 61.833 M328.626 61.875 L 328.583 85.583 321.458 85.627 L 314.333 85.670 314.333 61.918 L 314.333 38.167 321.501 38.167 L 328.668 38.167 328.626 61.875 M206.939 47.398 C 210.946 47.999,214.667 52.282,214.667 56.291 L 214.667 57.000 204.667 57.000 C 198.577 57.000,194.667 56.939,194.667 56.844 C 194.667 55.514,195.573 53.144,196.597 51.798 C 197.015 51.248,197.397 50.696,197.445 50.570 C 197.839 49.542,201.626 47.595,203.676 47.368 C 204.450 47.282,205.158 47.202,205.250 47.190 C 205.342 47.179,206.102 47.272,206.939 47.398 M263.086 48.817 C 271.203 51.100,274.755 60.528,270.609 68.783 C 267.141 75.687,257.532 77.647,251.417 72.698 C 245.936 68.263,245.286 57.564,250.172 52.227 C 250.892 51.440,252.567 50.000,252.761 50.000 C 252.839 50.000,253.535 49.729,254.307 49.397 C 256.895 48.285,260.378 48.056,263.086 48.817 " stroke="none" fill="#0464c4" fill-rule="evenodd"></path></g></svg>