<svg width="24" height="23" viewBox="0 0 24 23" fill="none" xmlns="http://www.w3.org/2000/svg">
<path d="M12 19.0323L6.46662 22.3656C6.22217 22.5212 5.96662 22.5878 5.69995 22.5656C5.43328 22.5434 5.19995 22.4545 4.99995 22.299C4.79995 22.1434 4.64439 21.9492 4.53328 21.7163C4.42217 21.4834 4.39995 21.2221 4.46662 20.9323L5.93328 14.6323L1.03328 10.399C0.811061 10.199 0.672395 9.97096 0.617284 9.71496C0.562173 9.45896 0.578617 9.20918 0.666617 8.96562C0.754617 8.72207 0.88795 8.52207 1.06662 8.36562C1.24528 8.20918 1.48973 8.10918 1.79995 8.06563L8.26662 7.49896L10.7666 1.56563C10.8777 1.29896 11.0502 1.09896 11.284 0.965625C11.5177 0.832291 11.7564 0.765625 12 0.765625C12.2435 0.765625 12.4822 0.832291 12.716 0.965625C12.9497 1.09896 13.1222 1.29896 13.2333 1.56563L15.7333 7.49896L22.1999 8.06563C22.5111 8.11007 22.7555 8.21007 22.9333 8.36562C23.1111 8.52118 23.2444 8.72118 23.3333 8.96562C23.4222 9.21007 23.4391 9.46029 23.3839 9.71629C23.3288 9.97229 23.1897 10.1998 22.9666 10.399L18.0666 14.6323L19.5333 20.9323C19.6 21.2212 19.5777 21.4825 19.4666 21.7163C19.3555 21.9501 19.2 22.1443 19 22.299C18.8 22.4536 18.5666 22.5425 18.3 22.5656C18.0333 22.5887 17.7777 22.5221 17.5333 22.3656L12 19.0323Z" fill="#F3993F"/>
</svg>
