<svg id="svg" version="1.1" xmlns="http://www.w3.org/2000/svg" xmlns:xlink="http://www.w3.org/1999/xlink" width="36" height="36" viewBox="0, 0, 400,400"><g id="svgg"><path id="path0" d="M167.293 21.958 C 24.871 47.729,-30.103 224.859,72.438 327.588 C 174.624 429.962,350.077 376.179,377.500 234.076 C 401.401 110.227,291.631 -0.540,167.293 21.958 M160.214 130.938 C 163.888 134.906,242.772 236.606,263.559 264.172 L 277.545 282.719 269.710 288.981 C 265.401 292.425,261.566 295.742,261.188 296.352 C 260.386 297.648,238.220 270.002,188.666 205.900 L 153.125 159.925 152.500 215.900 L 151.875 271.875 140.000 271.875 L 128.125 271.875 127.800 201.250 C 127.622 162.406,127.745 129.922,128.074 129.063 C 129.455 125.452,156.603 127.036,160.214 130.938 M273.662 152.188 C 273.554 182.567,274.359 180.625,261.875 180.625 L 251.875 180.625 251.010 176.250 C 249.891 170.596,249.740 129.427,250.833 128.333 C 251.292 127.875,256.635 127.500,262.708 127.500 L 273.750 127.500 273.662 152.188 " stroke="none" fill="#000000" fill-rule="evenodd"></path></g></svg>