<svg id="svg" version="1.1" xmlns="http://www.w3.org/2000/svg" xmlns:xlink="http://www.w3.org/1999/xlink" width="200" height="110.66066066066067" viewBox="0, 0, 400,110.66066066066067"><g id="svgg"><path id="path0" d="M346.059 0.051 C 325.654 0.269,296.741 3.079,279.842 6.486 C 274.665 7.531,266.274 9.791,265.849 10.257 C 265.799 10.311,265.893 10.303,268.468 10.028 C 298.894 6.785,326.075 8.146,339.976 13.608 C 349.796 17.467,352.853 21.843,350.418 28.556 C 348.952 32.598,349.329 36.448,351.511 39.718 C 354.135 43.652,358.652 44.521,364.264 42.173 C 365.882 41.496,377.271 35.825,380.556 34.061 C 393.346 27.191,399.038 21.272,399.891 13.956 C 400.512 8.629,395.313 5.023,383.602 2.659 C 375.172 0.957,361.204 -0.112,349.099 0.019 C 348.294 0.027,346.926 0.042,346.059 0.051 M77.327 36.861 L 77.327 65.320 91.235 65.296 L 105.143 65.273 106.184 65.103 C 116.866 63.365,122.257 54.393,122.499 37.950 C 122.750 20.880,117.540 10.908,107.303 8.863 C 105.207 8.444,105.832 8.461,91.085 8.430 L 77.327 8.402 77.327 36.861 M204.730 15.690 L 204.730 20.571 209.948 20.571 L 215.166 20.571 215.147 15.709 L 215.128 10.848 209.929 10.829 L 204.730 10.810 204.730 15.690 M101.574 20.745 C 106.971 21.944,109.489 27.069,109.492 36.862 C 109.495 46.026,107.207 51.268,102.565 52.732 C 101.272 53.140,101.042 53.153,94.914 53.153 L 89.264 53.153 89.264 36.858 L 89.264 20.563 95.139 20.592 C 100.264 20.617,101.085 20.636,101.574 20.745 M128.378 29.465 L 128.378 34.230 137.331 34.251 L 146.284 34.272 146.871 34.480 C 148.933 35.209,150.148 37.281,150.150 40.069 L 150.150 40.385 142.661 40.409 C 134.383 40.435,134.647 40.420,133.033 40.932 C 128.550 42.354,125.976 46.692,125.976 52.826 C 125.976 59.450,128.873 63.886,133.934 65.013 C 135.250 65.306,135.697 65.315,148.270 65.315 L 160.511 65.315 160.510 51.595 C 160.509 40.119,160.491 37.707,160.400 36.847 C 159.741 30.639,156.495 26.397,151.418 25.111 C 149.762 24.691,150.069 24.701,138.795 24.700 L 128.378 24.700 128.378 29.465 M166.967 29.463 L 166.967 34.230 175.920 34.253 C 185.815 34.280,185.114 34.245,186.166 34.763 C 187.691 35.514,188.737 37.594,188.738 39.880 L 188.739 40.384 181.212 40.412 C 172.945 40.442,173.284 40.425,171.697 40.914 C 167.150 42.317,164.610 46.608,164.608 52.890 C 164.606 59.130,167.246 63.506,171.807 64.825 C 173.447 65.299,172.604 65.272,186.508 65.296 L 199.180 65.319 199.153 51.409 C 199.128 38.914,199.113 37.406,199.000 36.574 C 198.114 30.055,194.794 26.094,189.223 24.912 L 188.401 24.737 177.684 24.717 L 166.967 24.696 166.967 29.463 M204.730 45.008 L 204.730 65.315 209.947 65.315 L 215.165 65.315 215.165 45.008 L 215.165 24.700 209.947 24.700 L 204.730 24.700 204.730 45.008 M221.321 45.008 L 221.321 65.315 226.539 65.315 L 231.757 65.315 231.757 50.075 L 231.757 34.835 236.299 34.835 L 240.841 34.835 240.841 50.075 L 240.841 65.315 246.059 65.315 L 251.276 65.315 251.276 50.075 L 251.276 34.835 254.301 34.835 C 258.444 34.835,259.129 35.069,259.923 36.756 C 260.420 37.813,260.389 36.846,260.416 51.783 L 260.440 65.315 265.618 65.315 L 270.796 65.315 270.796 50.882 C 270.795 41.289,270.769 36.159,270.716 35.586 C 270.254 30.594,267.194 26.584,262.763 25.166 C 261.197 24.665,262.826 24.700,241.058 24.700 L 221.321 24.700 221.321 45.008 M277.252 29.467 L 277.252 34.234 285.905 34.237 C 295.481 34.240,295.273 34.230,296.300 34.718 C 297.948 35.500,299.024 37.651,299.024 40.162 L 299.024 40.390 291.896 40.390 C 283.452 40.390,282.989 40.426,281.081 41.215 C 276.675 43.039,274.302 48.278,274.917 54.823 C 275.386 59.807,277.883 63.442,281.701 64.700 C 283.572 65.316,282.478 65.273,296.718 65.297 L 309.389 65.319 309.365 51.184 L 309.342 37.050 309.173 36.013 C 308.230 30.220,305.171 26.416,300.442 25.155 C 298.685 24.686,299.091 24.701,287.669 24.700 L 277.252 24.700 277.252 29.467 M315.015 45.008 L 315.015 65.315 320.195 65.315 L 325.375 65.315 325.375 50.075 L 325.375 34.835 329.564 34.835 C 334.105 34.835,334.182 34.841,335.001 35.256 C 335.569 35.544,336.226 36.204,336.483 36.745 C 336.959 37.746,336.937 37.010,336.937 51.836 L 336.937 65.315 342.119 65.315 L 347.300 65.315 347.280 50.169 L 347.260 35.023 347.087 34.212 C 346.156 29.832,343.313 26.499,339.388 25.186 C 337.865 24.677,338.474 24.700,326.154 24.700 L 315.015 24.700 315.015 45.008 M150.150 52.628 L 150.150 55.706 144.561 55.706 C 138.617 55.706,138.540 55.702,137.724 55.334 C 136.754 54.897,136.372 54.129,136.377 52.628 C 136.383 51.119,136.702 50.472,137.681 49.987 C 138.532 49.566,138.495 49.568,144.538 49.558 L 150.150 49.550 150.150 52.628 M188.739 52.628 L 188.739 55.706 183.138 55.706 C 177.057 55.706,177.129 55.710,176.227 55.284 C 174.423 54.431,174.518 50.745,176.364 49.928 C 177.204 49.557,177.150 49.560,183.127 49.554 L 188.739 49.550 188.739 52.628 M299.024 52.628 L 299.024 55.706 293.409 55.706 C 287.226 55.706,287.371 55.715,286.411 55.235 C 285.030 54.544,284.731 51.485,285.935 50.365 C 286.779 49.580,286.936 49.563,293.412 49.556 L 299.024 49.550 299.024 52.628 M71.659 53.265 C 60.866 56.117,41.514 64.032,28.791 70.799 C -2.102 87.229,-8.441 100.158,11.454 106.158 C 27.357 110.954,64.650 112.050,96.884 108.670 C 122.788 105.953,149.838 100.309,169.954 93.421 C 171.522 92.884,172.165 92.610,171.089 92.937 C 155.634 97.631,132.603 101.240,112.012 102.193 C 109.213 102.323,97.120 102.323,94.520 102.194 C 84.490 101.695,76.255 100.794,68.929 99.395 C 53.979 96.539,47.808 91.118,50.453 83.164 C 52.511 76.972,60.440 68.985,72.769 60.685 C 75.010 59.177,75.358 58.847,75.669 57.938 C 76.561 55.329,74.212 52.591,71.659 53.265 M82.625 70.563 C 82.602 70.599,81.483 73.851,80.138 77.789 C 76.829 87.472,76.952 87.110,76.952 87.179 C 76.952 87.213,77.634 87.231,78.467 87.220 L 79.982 87.200 80.628 85.210 L 81.273 83.221 84.059 83.201 L 86.845 83.181 87.505 85.209 L 88.166 87.237 89.686 87.237 L 91.207 87.237 91.089 86.881 C 90.978 86.546,89.019 80.798,86.912 74.625 C 86.398 73.117,85.868 71.572,85.734 71.190 L 85.492 70.495 84.079 70.495 C 83.302 70.495,82.648 70.526,82.625 70.563 M91.216 70.556 C 91.216 70.589,91.573 72.371,92.008 74.516 C 92.444 76.661,93.033 79.565,93.317 80.968 C 93.601 82.372,93.988 84.281,94.176 85.210 C 94.364 86.139,94.536 86.975,94.558 87.068 L 94.597 87.237 96.278 87.237 L 97.960 87.237 98.112 86.580 C 98.196 86.219,98.824 83.508,99.507 80.556 C 100.190 77.603,100.768 75.108,100.791 75.010 C 100.860 74.718,100.855 74.700,102.135 80.224 C 102.814 83.152,103.458 85.929,103.568 86.394 L 103.767 87.240 105.462 87.220 L 107.157 87.200 108.833 78.904 C 109.754 74.341,110.509 70.583,110.510 70.552 C 110.510 70.521,109.821 70.495,108.977 70.495 L 107.444 70.495 107.401 70.702 C 107.377 70.816,107.190 71.973,106.984 73.273 C 106.779 74.574,106.357 77.240,106.046 79.198 C 105.735 81.156,105.480 82.791,105.480 82.833 C 105.480 83.159,105.436 82.972,103.112 72.950 C 102.846 71.802,102.608 70.780,102.582 70.679 L 102.536 70.495 100.864 70.495 L 99.192 70.495 99.105 70.840 C 99.058 71.029,98.853 71.899,98.651 72.773 C 96.311 82.874,96.246 83.144,96.246 82.841 C 96.246 82.804,95.924 80.746,95.531 78.267 C 95.137 75.789,94.714 73.119,94.589 72.335 C 94.465 71.550,94.345 70.816,94.323 70.702 L 94.282 70.495 92.749 70.495 C 91.906 70.495,91.216 70.523,91.216 70.556 M117.547 70.572 C 114.333 70.879,112.613 73.766,112.613 78.850 C 112.613 83.780,114.162 86.601,117.155 87.123 C 117.668 87.212,118.447 87.237,120.693 87.237 L 123.574 87.237 123.574 85.811 L 123.574 84.384 121.185 84.384 C 118.075 84.384,117.639 84.299,116.918 83.546 C 116.396 83.000,115.955 81.856,115.802 80.649 L 115.752 80.255 119.550 80.255 L 123.348 80.255 123.348 78.866 L 123.348 77.477 119.552 77.477 L 115.755 77.477 115.807 77.046 C 115.952 75.857,116.434 74.632,116.967 74.099 C 117.624 73.442,118.167 73.350,121.378 73.349 L 123.574 73.348 123.574 71.922 L 123.574 70.495 120.852 70.506 C 119.355 70.512,117.868 70.542,117.547 70.572 M126.351 71.922 L 126.351 73.348 128.604 73.348 L 130.856 73.348 130.856 80.293 L 130.856 87.237 132.282 87.237 L 133.708 87.237 133.727 80.312 L 133.746 73.386 136.017 73.366 L 138.288 73.346 138.288 71.921 L 138.288 70.495 132.320 70.495 L 126.351 70.495 126.351 71.922 M149.399 78.871 L 149.399 87.247 153.472 87.218 C 157.088 87.192,157.596 87.174,157.995 87.056 C 160.662 86.273,162.012 83.519,162.012 78.866 C 162.012 74.446,160.743 71.661,158.351 70.829 C 157.545 70.549,156.714 70.498,152.909 70.497 L 149.399 70.495 149.399 78.871 M169.256 70.588 C 169.191 70.766,167.784 74.871,167.257 76.422 C 166.968 77.271,166.501 78.641,166.218 79.467 C 164.818 83.558,163.589 87.176,163.589 87.207 C 163.589 87.225,164.271 87.231,165.105 87.220 L 166.622 87.200 167.250 85.285 C 167.596 84.232,167.892 83.329,167.908 83.277 C 167.932 83.204,168.560 83.183,170.715 83.183 L 173.493 83.183 174.152 85.191 L 174.812 87.200 176.333 87.220 C 177.169 87.231,177.853 87.227,177.853 87.211 C 177.853 87.195,177.461 86.037,176.983 84.638 C 176.505 83.239,175.596 80.574,174.963 78.716 C 174.330 76.858,173.442 74.257,172.990 72.935 L 172.168 70.533 170.729 70.513 C 169.619 70.497,169.283 70.514,169.256 70.588 M180.631 78.865 L 180.631 87.237 182.057 87.237 L 183.483 87.237 183.483 81.104 C 183.483 77.730,183.512 75.002,183.547 75.041 C 183.581 75.081,184.820 77.841,186.300 81.176 L 188.990 87.240 190.798 87.220 L 192.605 87.200 192.605 78.866 L 192.605 70.533 191.198 70.513 L 189.791 70.492 189.771 76.631 L 189.752 82.770 189.489 82.209 C 189.345 81.900,188.112 79.146,186.749 76.090 L 184.272 70.533 182.451 70.513 L 180.631 70.493 180.631 78.865 M203.754 71.922 L 203.754 73.348 206.006 73.348 L 208.258 73.348 208.258 80.293 L 208.258 87.237 209.684 87.237 L 211.110 87.237 211.129 80.312 L 211.149 73.386 213.420 73.366 L 215.691 73.346 215.691 71.921 L 215.691 70.495 209.722 70.495 L 203.754 70.495 203.754 71.922 M220.385 70.851 C 220.162 71.488,218.246 77.090,217.643 78.866 C 216.840 81.235,215.142 86.200,214.948 86.747 C 214.861 86.993,214.790 87.204,214.790 87.216 C 214.790 87.228,215.476 87.237,216.315 87.237 L 217.840 87.237 218.501 85.209 L 219.161 83.181 221.946 83.201 L 224.731 83.221 225.375 85.210 L 226.020 87.200 227.537 87.220 C 228.371 87.231,229.054 87.211,229.054 87.175 C 229.054 87.140,228.932 86.759,228.784 86.329 C 228.635 85.900,227.804 83.470,226.938 80.931 C 224.933 75.055,224.364 73.390,223.823 71.809 L 223.386 70.533 221.948 70.513 L 220.511 70.492 220.385 70.851 M231.866 70.589 C 231.847 70.641,231.839 74.399,231.850 78.941 L 231.869 87.200 233.277 87.220 L 234.685 87.241 234.685 83.748 L 234.685 80.255 237.387 80.255 L 240.090 80.255 240.090 83.746 L 240.090 87.237 241.517 87.237 L 242.943 87.237 242.943 78.866 L 242.943 70.495 241.517 70.495 L 240.090 70.495 240.090 73.986 L 240.090 77.477 237.387 77.477 L 234.685 77.477 234.685 73.986 L 234.685 70.495 233.293 70.495 C 232.250 70.495,231.893 70.519,231.866 70.589 M251.291 70.927 C 251.139 71.348,249.602 75.846,248.423 79.317 C 248.100 80.267,247.362 82.437,246.781 84.140 L 245.726 87.237 247.257 87.237 C 248.781 87.237,248.789 87.236,248.839 87.068 C 248.866 86.975,249.159 86.063,249.490 85.040 L 250.092 83.181 252.877 83.201 L 255.662 83.221 256.308 85.210 L 256.953 87.200 258.469 87.220 C 259.303 87.231,259.985 87.213,259.985 87.178 C 259.985 87.144,259.870 86.781,259.730 86.370 C 259.590 85.959,258.760 83.529,257.885 80.968 C 257.011 78.408,255.860 75.038,255.329 73.479 C 254.797 71.920,254.342 70.611,254.316 70.570 C 254.289 70.525,253.708 70.495,252.858 70.495 L 251.447 70.495 251.291 70.927 M262.797 70.589 C 262.778 70.641,262.770 74.399,262.781 78.941 L 262.800 87.200 264.208 87.220 L 265.616 87.241 265.616 81.105 C 265.616 77.431,265.643 74.999,265.684 75.041 C 265.721 75.081,266.924 77.748,268.357 80.968 C 269.790 84.189,271.010 86.917,271.068 87.031 L 271.175 87.237 272.975 87.237 L 274.775 87.237 274.775 78.866 L 274.775 70.495 273.348 70.495 L 271.922 70.495 271.918 76.633 L 271.915 82.770 271.743 82.432 C 271.649 82.247,270.411 79.485,268.992 76.295 L 266.412 70.495 264.623 70.495 C 263.260 70.495,262.825 70.518,262.797 70.589 M286.280 76.706 C 286.305 82.872,286.306 82.925,286.474 83.559 C 286.966 85.417,288.011 86.599,289.574 87.066 C 289.903 87.164,290.492 87.192,292.774 87.218 L 295.571 87.248 295.571 85.822 L 295.571 84.395 293.412 84.371 C 290.758 84.341,290.282 84.184,289.667 83.135 C 289.118 82.199,289.156 82.663,289.114 76.276 L 289.077 70.533 287.666 70.513 L 286.256 70.492 286.280 76.706 M302.975 72.654 C 302.570 73.841,301.772 76.181,301.201 77.853 C 298.809 84.859,298.048 87.108,298.048 87.173 C 298.048 87.211,298.693 87.232,299.555 87.220 L 301.063 87.200 301.714 85.192 L 302.365 83.185 305.147 83.184 L 307.930 83.183 308.586 85.210 L 309.243 87.237 310.740 87.237 C 311.940 87.237,312.237 87.217,312.237 87.137 C 312.237 87.082,312.071 86.550,311.868 85.954 C 311.665 85.359,310.399 81.651,309.053 77.714 C 307.707 73.777,306.607 70.542,306.607 70.525 C 306.607 70.509,305.955 70.495,305.159 70.495 L 303.712 70.495 302.975 72.654 M315.090 78.868 L 315.090 87.241 316.498 87.220 L 317.905 87.200 317.943 80.971 L 317.980 74.742 318.649 77.180 C 319.017 78.520,319.612 80.681,319.972 81.982 C 320.332 83.283,320.804 84.997,321.022 85.792 L 321.419 87.237 322.829 87.237 C 324.107 87.237,324.243 87.225,324.279 87.106 C 324.314 86.991,325.563 82.436,327.161 76.595 C 327.435 75.594,327.686 74.775,327.719 74.775 C 327.751 74.775,327.778 77.580,327.778 81.008 L 327.778 87.241 329.185 87.220 L 330.593 87.200 330.593 78.866 L 330.593 70.533 328.455 70.533 L 326.316 70.533 325.551 73.348 C 325.130 74.897,324.354 77.760,323.827 79.711 C 323.300 81.662,322.845 83.233,322.816 83.202 C 322.774 83.156,320.591 75.180,319.611 71.490 L 319.347 70.495 317.219 70.495 L 315.090 70.495 315.090 78.868 M339.006 70.739 C 338.851 71.119,333.408 87.094,333.408 87.171 C 333.408 87.212,334.037 87.232,334.917 87.220 L 336.426 87.200 337.076 85.193 L 337.725 83.186 340.508 83.184 L 343.291 83.183 343.951 85.210 L 344.611 87.237 346.104 87.237 C 347.312 87.237,347.598 87.218,347.598 87.135 C 347.598 87.079,347.172 85.787,346.652 84.264 C 346.131 82.740,344.864 79.032,343.836 76.024 C 342.808 73.015,341.967 70.541,341.967 70.525 C 341.967 70.509,341.323 70.495,340.537 70.495 L 339.106 70.495 339.006 70.739 M155.987 73.424 C 158.247 73.717,159.308 76.519,158.750 80.715 C 158.348 83.736,157.509 84.384,154.003 84.384 L 152.252 84.384 152.252 78.866 L 152.252 73.348 153.848 73.351 C 154.725 73.352,155.688 73.385,155.987 73.424 M84.193 74.981 C 84.221 75.094,84.630 76.373,85.102 77.823 C 85.575 79.272,85.961 80.480,85.961 80.507 C 85.961 80.534,85.103 80.556,84.055 80.556 L 82.148 80.556 82.628 79.073 C 82.891 78.257,83.316 76.941,83.571 76.148 C 84.033 74.710,84.098 74.589,84.193 74.981 M171.689 77.613 C 172.189 79.154,172.598 80.446,172.598 80.485 C 172.598 80.569,168.846 80.583,168.840 80.499 C 168.830 80.355,170.689 74.719,170.732 74.763 C 170.759 74.790,171.190 76.073,171.689 77.613 M222.889 77.553 C 223.389 79.102,223.799 80.411,223.799 80.462 C 223.799 80.534,223.366 80.556,221.922 80.556 C 220.890 80.556,220.045 80.530,220.045 80.499 C 220.045 80.468,220.195 79.987,220.378 79.430 C 220.561 78.872,220.968 77.622,221.282 76.652 C 221.973 74.517,221.920 74.672,221.952 74.708 C 221.967 74.724,222.388 76.004,222.889 77.553 M253.821 77.549 C 254.321 79.095,254.730 80.404,254.730 80.458 C 254.730 80.535,254.343 80.556,252.848 80.556 L 250.966 80.556 251.015 80.387 C 251.064 80.217,252.751 74.980,252.820 74.783 C 252.876 74.622,252.857 74.569,253.821 77.549 M305.483 75.657 C 305.654 76.183,306.078 77.487,306.425 78.554 C 306.773 79.622,307.057 80.508,307.057 80.525 C 307.057 80.542,306.192 80.556,305.135 80.556 C 303.532 80.556,303.219 80.538,303.252 80.452 C 303.274 80.395,303.706 79.078,304.213 77.524 C 304.720 75.971,305.143 74.700,305.154 74.700 C 305.164 74.700,305.312 75.130,305.483 75.657 M341.463 77.553 C 341.937 79.018,342.349 80.294,342.377 80.387 L 342.428 80.556 340.500 80.556 C 338.925 80.556,338.580 80.537,338.611 80.456 C 338.632 80.401,338.858 79.716,339.113 78.935 C 340.333 75.198,340.502 74.709,340.549 74.795 C 340.577 74.846,340.988 76.087,341.463 77.553 " stroke="none" fill="#2D8CFF" fill-rule="evenodd"></path></g></svg>